# xmcd
#
# Track frame offsets:
#	150
#	14624
#	29376
#	48527
#	65493
#	80982
#	99352
#	116013
#	132601
#	150819
#	166379
#	180433
#	197313
#	211853
#	228601
#	249853
#	265657
#	281174
#	294089
#	313448
#
# Disc length: 4400 seconds
#
# Revision: 1
# Processed by: cddbd v1.5.2PL0 Copyright (c) Steve Scherf et al.
# Submitted via: EasyCDDAExtractor 12.0.7.1
#
DISCID=19112e14
DTITLE=Various Artist - Новая игрушка #13
DYEAR=2003
DGENRE=Pop
TTITLE0=Нарцисс Пьер - Шоколадный заяц
TTITLE1=Руки вверх - Мне с тобою хорошо
TTITLE2=Катя Лель - Долетай
TTITLE3=Фабрика - Море зовет
TTITLE4=Лицей - Падает дождь
TTITLE5=Андрей Губин - Я и ты
TTITLE6=Кай Метов - Воспитательный процесс
TTITLE7=Стрелки - Целое лето
TTITLE8=Ираклий Пирцхалава - Вова-чума
TTITLE9=Чай вдвоем vs. Radius - Желанная (Remix)
TTITLE10=Вирус - Братишка
TTITLE11=ВИА Гра - Убей мою подругу
TTITLE12=Жуки - Йогурты (Remix)
TTITLE13=Света - Синеглазые дельфины
TTITLE14=Юля Савичева - Высоко
TTITLE15=Валерия - Была любовь
TTITLE16=Маша Ржевская - Когда я стану кошкой
TTITLE17=Корни - Куда глаза глядят
TTITLE18=Акула - Такая любовь
TTITLE19=Поручик Ржевский - Ночь и бал
EXTD=
EXTT0=
EXTT1=
EXTT2=
EXTT3=
EXTT4=
EXTT5=
EXTT6=
EXTT7=
EXTT8=
EXTT9=
EXTT10=
EXTT11=
EXTT12=
EXTT13=
EXTT14=
EXTT15=
EXTT16=
EXTT17=
EXTT18=
EXTT19=
PLAYORDER=
